<svg width="35" height="28" viewBox="0 0 35 28" fill="none" xmlns="http://www.w3.org/2000/svg">
<path d="M17.5 0H23.3333V5.6H17.5V0Z" fill="white"/>
<path d="M23.3333 5.6H29.1667V11.2H23.3333V5.6Z" fill="white"/>
<path d="M23.3333 16.8H29.1667V22.4H23.3333V16.8Z" fill="white"/>
<path d="M17.5 22.4H23.3333V28H17.5V22.4Z" fill="white"/>
<path d="M23.3333 11.2H29.1667V16.8H23.3333V11.2Z" fill="white"/>
<path d="M17.5 11.2H23.3333V16.8H17.5V11.2Z" fill="white"/>
<path d="M11.6667 11.2H17.5V16.8H11.6667V11.2Z" fill="white"/>
<path d="M5.83333 11.2H11.6667V16.8H5.83333V11.2Z" fill="white"/>
<path d="M0 11.2H5.83333V16.8H0V11.2Z" fill="white"/>
<path d="M29.1667 11.2H35V16.8H29.1667V11.2Z" fill="white"/>
</svg>
