<svg width="35" height="28" viewBox="0 0 35 28" fill="none" xmlns="http://www.w3.org/2000/svg">
<path d="M17.5 28H11.6667V22.4H17.5V28Z" fill="white"/>
<path d="M11.6667 22.4H5.83333V16.8H11.6667V22.4Z" fill="white"/>
<path d="M11.6667 11.2H5.83333V5.6H11.6667V11.2Z" fill="white"/>
<path d="M17.5 5.6H11.6667V-1.19209e-07H17.5V5.6Z" fill="white"/>
<path d="M11.6667 16.8H5.83333V11.2H11.6667V16.8Z" fill="white"/>
<path d="M17.5 16.8H11.6667V11.2H17.5V16.8Z" fill="white"/>
<path d="M23.3333 16.8H17.5V11.2H23.3333V16.8Z" fill="white"/>
<path d="M29.1667 16.8H23.3333V11.2H29.1667V16.8Z" fill="white"/>
<path d="M35 16.8H29.1667V11.2H35V16.8Z" fill="white"/>
<path d="M5.83333 16.8H-5.96046e-07V11.2L5.83333 11.2V16.8Z" fill="white"/>
</svg>
